<?xml version="1.0" encoding="UTF-8" standalone="no"?>
<!-- Created with Inkscape (http://www.inkscape.org/) -->

<svg
   xmlns:dc="http://purl.org/dc/elements/1.1/"
   xmlns:cc="http://creativecommons.org/ns#"
   xmlns:rdf="http://www.w3.org/1999/02/22-rdf-syntax-ns#"
   xmlns:svg="http://www.w3.org/2000/svg"
   xmlns="http://www.w3.org/2000/svg"
   xmlns:sodipodi="http://sodipodi.sourceforge.net/DTD/sodipodi-0.dtd"
   xmlns:inkscape="http://www.inkscape.org/namespaces/inkscape"
   width="100mm"
   height="100mm"
   viewBox="0 0 354.33071 354.33071"
   id="svg4346"
   version="1.1"
   inkscape:version="0.91 r13725"
   sodipodi:docname="tealinuxos.svg">
  <defs
     id="defs4348" />
  <sodipodi:namedview
     id="base"
     pagecolor="#ffffff"
     bordercolor="#666666"
     borderopacity="1.0"
     inkscape:pageopacity="0.0"
     inkscape:pageshadow="2"
     inkscape:zoom="0.98994949"
     inkscape:cx="75.511868"
     inkscape:cy="165.57365"
     inkscape:document-units="px"
     inkscape:current-layer="layer1"
     showgrid="false"
     inkscape:window-width="1366"
     inkscape:window-height="710"
     inkscape:window-x="0"
     inkscape:window-y="29"
     inkscape:window-maximized="1" />
  <metadata
     id="metadata4351">
    <rdf:RDF>
      <cc:Work
         rdf:about="">
        <dc:format>image/svg+xml</dc:format>
        <dc:type
           rdf:resource="http://purl.org/dc/dcmitype/StillImage" />
        <dc:title />
      </cc:Work>
    </rdf:RDF>
  </metadata>
  <g
     inkscape:label="Layer 1"
     inkscape:groupmode="layer"
     id="layer1"
     transform="translate(0,-698.0315)">
    <circle
       style="color:#000000;clip-rule:nonzero;display:inline;overflow:visible;visibility:visible;opacity:1;isolation:auto;mix-blend-mode:normal;color-interpolation:sRGB;color-interpolation-filters:linearRGB;solid-color:#000000;solid-opacity:1;fill:#39c892;fill-opacity:1;fill-rule:nonzero;stroke:none;stroke-width:2.47393155px;stroke-linecap:butt;stroke-linejoin:miter;stroke-miterlimit:4;stroke-dasharray:none;stroke-dashoffset:0;stroke-opacity:1;color-rendering:auto;image-rendering:auto;shape-rendering:auto;text-rendering:auto;enable-background:accumulate"
       id="path4988"
       cx="177.16536"
       cy="875.19684"
       r="156.97183" />
    <g
       id="g4209"
       transform="matrix(18.210404,0,0,18.210404,122501.15,-49747.623)"
       style="fill:#ffffff;fill-opacity:1">
      <g
         style="fill:#ffffff;fill-opacity:1"
         transform="matrix(1.0263839,0,0,1.0263839,200.19247,-73.092884)"
         id="g3208">
        <path
           inkscape:connector-curvature="0"
           id="path4131-5"
           d="m -6740.5653,2773.4142 c -1.0399,2.5626 0.3131,2.3818 0.7922,3.4942 0.8686,-1.7885 -0.1483,-2.0645 -0.7922,-3.4942 z m 4.5133,1.1866 c -0.9626,1.5279 -2.8214,1.2709 -3.2478,2.9881 -0.1102,0.4438 -0.1218,1.0186 0,1.7915 l 0,1.7521 c -0.8201,-2.5691 -3.4792,-2.2915 -5.7032,-4.7172 0.9318,7.5776 3.3797,4.7469 5.7032,8.2245 l 0,1.407 0.2597,0 0,-6.571 c 1.1718,-1.1776 3.5972,-1.1514 2.9881,-4.875 z"
           style="fill:#ffffff;fill-opacity:1;stroke:none" />
      </g>
      <path
         inkscape:connector-curvature="0"
         id="path4070"
         d="m -6717.2582,2771.9679 c -4.4586,0 -8.0706,3.5654 -8.0706,7.9306 0,4.3651 3.612,7.9026 8.0706,7.9026 4.4584,0 8.0706,-3.5375 8.0706,-7.9026 0,-4.3652 -3.6122,-7.9306 -8.0706,-7.9306 z m 0,0.7006 c 4.0564,0 7.3419,3.2585 7.3419,7.23 0,3.9715 -3.2856,7.202 -7.3419,7.202 -4.0566,0 -7.3702,-3.2305 -7.3702,-7.202 0,-3.9715 3.3136,-7.23 7.3702,-7.23 z"
         style="fill:#ffffff;fill-opacity:1;stroke:none" />
    </g>
  </g>
</svg>
